<?xml version="1.0" standalone="no"?>
<!DOCTYPE svg PUBLIC "-//W3C//DTD SVG 20010904//EN"
 "http://www.w3.org/TR/2001/REC-SVG-20010904/DTD/svg10.dtd">
<svg version="1.0" xmlns="http://www.w3.org/2000/svg"
 width="600.000000pt" height="600.000000pt" viewBox="0 0 600.000000 600.000000"
 preserveAspectRatio="xMidYMid meet">
<g transform="translate(0.000000,600.000000) scale(0.100000,-0.100000)"
fill="#000000" stroke="none">
<path d="M2053 2299 c-25 -9 -30 -19 -10 -19 15 0 43 17 37 23 -3 3 -15 1 -27
-4z"/>
<path d="M1452 2091 c-7 -4 -12 -14 -10 -22 2 -11 -10 -14 -54 -14 l-56 0 -76
-104 c-52 -71 -73 -108 -66 -115 5 -5 11 -8 13 -5 2 2 21 31 42 63 22 33 50
71 63 84 12 14 22 29 22 33 0 5 6 9 14 9 8 0 16 5 18 11 4 13 68 2 68 -11 0
-5 7 -7 15 -4 8 4 15 14 15 24 0 10 7 20 15 24 8 3 12 12 9 21 -7 17 -13 18
-32 6z"/>
<path d="M390 2048 c0 -49 9 -45 16 6 2 20 0 36 -6 36 -5 0 -10 -19 -10 -42z"/>
<path d="M450 2085 c0 -10 29 -24 34 -17 3 6 -3 12 -14 15 -11 3 -20 4 -20 2z"/>
<path d="M1852 2068 c-7 -7 -12 -20 -12 -31 0 -16 -6 -17 -42 -13 -97 13 -247
21 -303 16 -43 -4 32 -17 131 -24 54 -4 132 -9 172 -12 53 -4 72 -3 72 6 0 7
8 18 17 25 15 11 15 15 4 29 -16 19 -23 20 -39 4z"/>
<path d="M487 2053 c-10 -10 -8 -25 2 -18 5 3 18 -6 29 -20 17 -21 21 -23 32
-10 10 12 10 15 -1 15 -8 0 -20 9 -27 20 -13 21 -24 25 -35 13z"/>
<path d="M1904 2011 c-10 -11 12 -21 46 -21 31 0 45 -7 69 -32 17 -18 31 -36
31 -40 0 -5 8 -17 18 -28 9 -11 25 -29 34 -39 9 -11 14 -22 11 -25 -4 -3 -36
-6 -71 -6 -36 0 -63 -2 -61 -5 3 -2 38 -9 78 -15 56 -8 77 -7 88 2 13 10 12
14 -4 27 -11 9 -45 53 -77 98 l-58 81 -50 4 c-27 1 -51 1 -54 -1z"/>
<path d="M695 1978 c-7 -18 -10 -37 -5 -42 8 -8 -7 -31 -44 -67 -18 -17 -18
-18 0 -13 26 7 66 74 70 118 4 45 -3 46 -21 4z"/>
<path d="M394 1975 c-4 -8 -12 -15 -19 -15 -7 0 -17 -6 -23 -13 -9 -10 -26
-11 -76 -4 -70 11 -99 1 -94 -32 2 -9 -2 -15 -9 -14 -14 3 -34 -52 -23 -63 5
-5 10 -22 12 -38 2 -16 9 -32 17 -34 11 -4 13 3 8 29 -3 19 -8 42 -12 52 -5
12 -2 17 11 17 15 0 16 2 5 9 -11 7 -10 12 5 27 15 15 35 19 87 20 43 1 76 7
92 18 13 9 31 16 40 16 8 0 15 5 15 11 0 6 9 8 20 4 65 -21 180 -13 180 12 0
11 -6 13 -22 8 -28 -10 -74 -10 -151 -1 -46 5 -59 4 -63 -9z"/>
<path d="M787 1942 c-48 -2 -67 -7 -64 -15 4 -12 24 -12 193 -2 l60 4 53 -59
c29 -33 60 -60 71 -60 13 0 2 16 -41 62 -32 34 -59 66 -59 70 0 8 -28 8 -213
0z"/>
<path d="M1482 1930 c7 -11 17 -20 22 -20 5 0 1 9 -9 20 -10 11 -20 20 -22 20
-2 0 2 -9 9 -20z"/>
<path d="M578 1933 c-22 -5 -23 -19 -3 -27 9 -3 15 -18 15 -38 0 -25 3 -29 10
-18 10 15 10 79 0 84 -3 1 -13 1 -22 -1z"/>
<path d="M3589 1926 c-1 -3 -3 -10 -4 -16 -1 -5 -3 -14 -4 -20 0 -5 -9 -10
-18 -10 -16 -1 -16 -2 1 -15 27 -21 36 -19 37 8 0 21 1 21 9 2 8 -16 9 -13 7
14 -1 19 -8 36 -14 39 -7 2 -14 1 -14 -2z"/>
<path d="M1883 1900 c-1 -11 2 -18 7 -15 5 3 16 -2 25 -11 9 -9 18 -14 22 -11
4 5 -40 57 -49 57 -2 0 -4 -9 -5 -20z"/>
<path d="M2680 1877 c-30 -16 -50 -48 -32 -54 7 -3 19 -11 27 -20 12 -12 15
-12 15 -1 0 8 -5 19 -12 26 -6 6 -9 14 -6 18 10 9 49 -16 43 -27 -4 -5 12 -9
37 -9 25 0 53 -7 64 -15 27 -20 56 -19 52 2 -2 10 -18 20 -38 25 -84 20 -110
30 -110 43 0 21 -14 25 -40 12z"/>
<path d="M3460 1852 c-19 -22 -63 -69 -97 -107 -53 -57 -60 -69 -48 -81 17
-17 26 -18 20 -1 -3 6 34 54 83 105 72 76 90 90 100 80 11 -11 13 -9 10 12 -5
38 -29 35 -68 -8z"/>
<path d="M3920 1859 c0 -26 3 -30 23 -27 16 2 23 11 25 31 3 23 0 27 -22 27
-22 0 -26 -4 -26 -31z"/>
<path d="M35 1858 c-4 -10 -13 -18 -21 -18 -8 0 -14 -4 -14 -8 0 -8 52 -10 59
-2 3 3 0 14 -6 25 -11 18 -12 19 -18 3z"/>
<path d="M1461 1844 c-14 -31 -14 -34 -1 -34 6 0 10 7 10 15 0 12 18 14 123 9
67 -3 127 -7 134 -9 7 -2 15 0 18 5 4 6 -6 10 -22 11 -15 0 -41 2 -58 4 -16 2
-63 6 -103 9 -40 3 -77 8 -81 10 -4 3 -13 -6 -20 -20z"/>
<path d="M3660 1859 c0 -10 15 -14 53 -14 28 0 74 -2 101 -5 32 -3 51 0 53 7
3 7 -4 11 -14 11 -10 -1 -57 2 -105 7 -72 6 -88 5 -88 -6z"/>
<path d="M1950 1829 c7 -11 14 -18 17 -15 8 8 -5 36 -17 36 -7 0 -7 -6 0 -21z"/>
<path d="M838 1833 c-10 -2 -18 -9 -18 -14 0 -6 10 -5 23 2 37 20 36 23 -5 12z"/>
<path d="M1760 1829 c0 -5 5 -7 10 -4 6 3 10 8 10 11 0 2 -4 4 -10 4 -5 0 -10
-5 -10 -11z"/>
<path d="M3994 1833 c4 -5 11 -8 14 -9 20 -2 49 -21 67 -42 11 -12 46 -48 78
-79 31 -31 57 -62 57 -70 0 -7 7 -13 15 -13 8 0 15 -3 15 -7 0 -8 59 -15 143
-16 26 -1 47 -4 47 -7 0 -3 20 -5 45 -5 25 1 45 -3 45 -7 0 -4 18 -6 39 -4 22
2 70 -2 108 -9 37 -7 112 -16 166 -20 53 -4 97 -11 97 -16 0 -5 10 -7 23 -4
12 4 59 1 102 -5 44 -6 90 -11 103 -11 12 1 22 -3 22 -7 0 -4 24 -7 54 -7 30
0 52 3 49 8 -7 12 32 8 46 -5 10 -11 15 -9 28 7 11 14 14 15 10 4 -4 -13 -1
-15 14 -12 11 3 18 11 16 17 -2 7 -47 11 -133 12 -71 0 -140 3 -154 6 -14 3
-70 11 -125 17 -55 6 -129 16 -165 21 -91 14 -147 21 -205 25 -27 2 -72 7
-100 10 -110 12 -143 15 -205 20 -71 5 -67 2 -212 168 -35 39 -48 47 -77 47
-19 0 -31 -3 -27 -7z"/>
<path d="M2903 1813 c-7 -2 -13 -9 -13 -14 0 -5 6 -9 13 -9 13 0 67 -39 54
-40 -5 0 -17 5 -28 11 -18 9 -19 8 -7 -10 6 -11 16 -17 20 -15 4 3 8 -1 8 -8
0 -7 6 -2 13 12 11 23 10 28 -16 52 -15 16 -29 28 -30 27 -1 0 -8 -3 -14 -6z"/>
<path d="M3141 1811 c-22 -14 10 -42 39 -34 15 4 21 2 17 -4 -5 -7 0 -9 13 -6
14 4 22 -1 28 -17 8 -20 9 -21 15 -6 10 26 -10 56 -38 56 -13 0 -27 5 -30 10
-8 12 -25 13 -44 1z"/>
<path d="M3560 1804 c0 -8 43 -43 52 -44 5 0 -2 11 -14 25 -20 24 -38 32 -38
19z"/>
<path d="M1281 1784 c0 -11 3 -14 6 -6 3 7 2 16 -1 19 -3 4 -6 -2 -5 -13z"/>
<path d="M2785 1790 c3 -5 8 -10 11 -10 2 0 4 5 4 10 0 6 -5 10 -11 10 -5 0
-7 -4 -4 -10z"/>
<path d="M1577 1784 c-11 -11 3 -24 18 -18 8 4 12 10 9 15 -6 11 -18 12 -27 3z"/>
<path d="M1455 1770 c3 -5 8 -10 11 -10 2 0 4 5 4 10 0 6 -5 10 -11 10 -5 0
-7 -4 -4 -10z"/>
<path d="M1508 1773 c-9 -2 -19 -11 -22 -19 -4 -11 -1 -11 19 2 14 9 25 18 25
20 0 2 -1 3 -2 3 -2 -1 -10 -3 -20 -6z"/>
<path d="M1620 1773 c0 -5 21 -8 48 -9 32 -1 41 1 27 7 -26 10 -75 11 -75 2z"/>
<path d="M3097 1749 c-7 -25 2 -51 14 -43 5 3 7 10 4 15 -4 5 -2 9 3 9 6 0 8
9 5 20 -7 26 -19 26 -26 -1z"/>
<path d="M1986 1753 c5 -5 12 -12 16 -18 4 -6 8 -2 8 8 0 9 -7 17 -17 17 -9 0
-12 -3 -7 -7z"/>
<path d="M2064 1749 c-3 -5 -4 -9 -2 -9 50 -5 163 -11 230 -12 58 -1 85 -5 81
-12 -3 -6 0 -6 7 1 8 8 19 9 29 3 9 -4 48 -10 87 -12 64 -3 73 -1 103 25 32
27 32 27 8 27 -14 0 -28 -7 -31 -16 -5 -14 -18 -16 -81 -12 -41 3 -80 9 -87
14 -7 5 -26 8 -43 7 -56 -6 -80 -6 -188 -1 -59 3 -110 1 -113 -3z"/>
<path d="M3700 1754 c0 -6 7 -19 15 -30 8 -10 14 -14 14 -9 0 6 -6 19 -14 29
-8 11 -15 15 -15 10z"/>
<path d="M3805 1750 c-4 -7 0 -19 9 -28 20 -21 26 -13 10 16 -8 16 -14 20 -19
12z"/>
<path d="M3883 1745 c0 -8 4 -15 9 -15 4 0 8 7 8 15 0 8 -4 15 -8 15 -5 0 -9
-7 -9 -15z"/>
<path d="M4020 1751 c0 -4 11 -25 25 -45 14 -20 25 -41 25 -46 0 -6 7 -10 15
-10 22 0 19 41 -4 47 -11 3 -25 18 -31 34 -12 27 -30 40 -30 20z"/>
<path d="M3620 1741 c0 -6 5 -11 10 -11 6 0 15 -11 20 -24 9 -24 59 -56 88
-56 12 0 12 3 2 15 -7 8 -16 12 -22 9 -5 -3 -21 7 -37 23 -42 43 -61 57 -61
44z"/>
<path d="M3216 1715 c4 -8 8 -15 10 -15 2 0 4 7 4 15 0 8 -4 15 -10 15 -5 0
-7 -7 -4 -15z"/>
<path d="M93 1710 c-34 -14 -29 -15 29 -11 39 3 48 6 33 12 -26 10 -35 10 -62
-1z"/>
<path d="M3753 1713 c9 -2 23 -2 30 0 6 3 -1 5 -18 5 -16 0 -22 -2 -12 -5z"/>
<path d="M3250 1702 c0 -5 7 -16 16 -23 14 -12 16 -11 13 5 -4 20 -29 35 -29
18z"/>
<path d="M2974 1691 c10 -15 94 -23 113 -11 16 10 16 11 1 6 -10 -3 -20 -1
-23 4 -4 6 -26 10 -51 10 -25 0 -43 -4 -40 -9z"/>
<path d="M3930 1660 c0 -5 5 -10 11 -10 5 0 7 5 4 10 -3 6 -8 10 -11 10 -2 0
-4 -4 -4 -10z"/>
<path d="M3825 1640 c-3 -5 -1 -10 4 -10 6 0 11 5 11 10 0 6 -2 10 -4 10 -3 0
-8 -4 -11 -10z"/>
<path d="M4091 1614 c5 -7 32 -14 59 -16 43 -3 50 0 50 15 0 16 -8 18 -60 16
-46 -2 -57 -5 -49 -15z"/>
<path d="M5448 1595 c-20 -27 -22 -41 -8 -50 5 -3 15 5 22 19 9 20 14 23 25
15 7 -6 13 -18 13 -25 0 -8 6 -13 13 -11 6 1 11 -3 10 -8 -1 -6 7 -11 18 -11
22 0 22 1 8 27 -5 11 -14 17 -19 14 -4 -3 -13 9 -19 25 -12 37 -39 39 -63 5z"/>
<path d="M5896 1601 c-3 -4 -17 -6 -31 -3 -18 3 -25 0 -25 -11 0 -8 -3 -24 -6
-34 -3 -10 -2 -14 3 -8 4 6 15 10 23 10 8 0 14 5 13 12 -2 10 10 11 60 4 5 0
5 -6 2 -11 -4 -6 -3 -9 2 -8 17 4 52 -14 56 -30 3 -11 5 -7 6 9 1 19 -6 29
-24 37 -14 7 -28 19 -31 27 -7 16 -39 21 -48 6z"/>
<path d="M4082 1560 c0 -14 2 -19 5 -12 2 6 2 18 0 25 -3 6 -5 1 -5 -13z"/>
<path d="M3652 1560 c6 -19 38 -26 38 -9 0 7 -3 9 -7 6 -3 -4 -13 -1 -21 6
-13 10 -14 9 -10 -3z"/>
<path d="M5796 1546 c3 -9 11 -16 16 -16 13 0 5 23 -10 28 -7 2 -10 -2 -6 -12z"/>
<path d="M4150 1520 c-13 -8 -12 -10 3 -10 9 0 17 5 17 10 0 12 -1 12 -20 0z"/>
<path d="M4240 1518 c0 -14 8 -18 33 -17 27 2 28 2 7 6 -14 3 -28 10 -32 17
-5 7 -8 5 -8 -6z"/>
<path d="M5436 1518 c3 -5 10 -6 15 -3 13 9 11 12 -6 12 -8 0 -12 -4 -9 -9z"/>
<path d="M4358 1508 c9 -9 15 -9 24 0 9 9 7 12 -12 12 -19 0 -21 -3 -12 -12z"/>
<path d="M4445 1510 c3 -5 8 -10 11 -10 2 0 4 5 4 10 0 6 -5 10 -11 10 -5 0
-7 -4 -4 -10z"/>
<path d="M5780 1509 c0 -5 -4 -7 -10 -4 -5 3 -10 2 -10 -3 0 -5 14 -12 30 -14
34 -5 36 -3 16 18 -17 17 -26 18 -26 3z"/>
<path d="M4530 1499 c0 -5 9 -9 20 -9 11 0 20 4 20 8 0 4 -9 8 -20 9 -11 1
-20 -2 -20 -8z"/>
<path d="M4600 1500 c0 -5 4 -10 9 -10 6 0 13 5 16 10 3 6 -1 10 -9 10 -9 0
-16 -4 -16 -10z"/>
<path d="M4791 1501 c-10 -7 -7 -9 12 -8 14 1 23 5 20 10 -6 9 -15 9 -32 -2z"/>
<path d="M4158 1493 c7 -3 16 -2 19 1 4 3 -2 6 -13 5 -11 0 -14 -3 -6 -6z"/>
<path d="M5523 1486 c-3 -6 -3 -8 2 -4 4 4 17 3 27 -3 25 -14 188 -20 188 -8
0 14 -16 17 -118 22 -62 3 -94 1 -99 -7z"/>
<path d="M4880 1460 c0 -5 7 -10 16 -10 8 0 12 5 9 10 -3 6 -10 10 -16 10 -5
0 -9 -4 -9 -10z"/>
</g>
</svg>
